<?xml version="1.0" encoding="iso-8859-1"?>

<svg version="1.1" xmlns="http://www.w3.org/2000/svg" xmlns:xlink="http://www.w3.org/1999/xlink" x="0px" y="0px"
	 viewBox="0 0 32 18" style="enable-background:new 0 0 32 18;" xml:space="preserve">
<g id="Layer_39">
	<path style="fill:#66CCFF;" d="M29.972,12.035h-28c-0.552,0-1,0.448-1,1c0,0.552,0.448,1,1,1h28c0.552,0,1-0.448,1-1
		C30.972,12.483,30.525,12.035,29.972,12.035z"/>
	<path style="fill:#66CCFF;" d="M14.265,7.742c0.391,0.391,1.024,0.391,1.414,0l3.043-3.043c0.391-0.391,0.391-1.024,0-1.414
		c-0.39-0.391-1.024-0.391-1.414,0l-3.043,3.043C13.875,6.719,13.875,7.352,14.265,7.742z"/>
	<path style="fill:#66CCFF;" d="M18.265,8.328c-0.391,0.391-0.391,1.024,0,1.414c0.391,0.391,1.024,0.391,1.414,0l2.043-2.043
		c0.391-0.391,0.391-1.024,0-1.414c-0.39-0.391-1.024-0.391-1.414,0L18.265,8.328z"/>
	<path style="fill:#4E5F80;" d="M28,8.035V8h-4.527l-7.707-7.707C15.579,0.107,15.322,0,15.058,0h-2.187
		c-0.474,0-0.885,0.353-0.98,0.818c-0.37,1.819-1.99,3.211-3.919,3.208C6.044,4.029,4.424,2.633,4.053,0.813
		C3.959,0.349,3.548,0,3.074,0H0.972C0.709,0,0.465,0.124,0.279,0.31S0,0.772,0,1.035v15C0,17.14,0.867,18,1.972,18h28
		C31.078,18,32,17.14,32,16.035v-4C32,9.827,30,8.037,28,8.035z M30,16H2V2h0.284c0.82,2.345,3.049,4.032,5.67,4.035
		c2.621-0.003,4.894-1.69,5.723-4.035h0.967l7.707,7.707C22.537,9.893,22.795,10,23.058,10H28v0.035c1,0.002,2,0.9,2,2V16z"/>
</g>
<g id="Layer_1">
</g>
</svg>